Coordinates
version=1
nRows=38
nColumns=12
inDegrees=yes

Units are S.I. units (second, meters, Newtons, ...)
Angles are in degrees

endheader
time	SC_y	SC_z	SC_x	AC_y	AC_z	AC_x	GH_y	GH_z	GH_yy	EL_x	PS_y
       0.0              -11.96          33.55          35.58           38.0           1.25          -1.83          26.22          47.65         -128.9          95.59          113.5
  0.002878              -11.96          33.54          35.58          38.01          1.248         -1.832          26.21          47.65         -128.9          95.58          113.5
  0.005756              -11.97          33.54          35.59          38.01          1.245         -1.835          26.19          47.64         -128.8          95.57          113.5
  0.008633              -11.97          33.54          35.59          38.02          1.242         -1.837          26.18          47.63         -128.8          95.56          113.5
   0.01151              -11.97          33.54           35.6          38.02           1.24          -1.84          26.17          47.62         -128.7          95.55          113.5
   0.01439              -11.97          33.54           35.6          38.03          1.237         -1.843          26.15          47.61         -128.7          95.54          113.5
   0.01727              -11.98          33.54          35.61          38.03          1.233         -1.846          26.14          47.61         -128.6          95.53          113.5
   0.02014              -11.98          33.54          35.62          38.04           1.23          -1.85          26.12           47.6         -128.6          95.51          113.5
   0.02302              -11.98          33.54          35.62          38.04          1.226         -1.853           26.1          47.58         -128.5           95.5          113.4
    0.0259              -11.98          33.54          35.63          38.05          1.222         -1.857          26.08          47.57         -128.5          95.49          113.4
   0.02878              -11.99          33.53          35.64          38.06          1.218         -1.861          26.06          47.56         -128.4          95.47          113.4
   0.03166              -11.99          33.53          35.65          38.06          1.213         -1.866          26.04          47.55         -128.3          95.45          113.4
   0.03453               -12.0          33.53          35.66          38.07          1.208         -1.871          26.02          47.53         -128.3          95.43          113.4
   0.03741               -12.0          33.53          35.67          38.08          1.203         -1.876          25.99          47.52         -128.2          95.41          113.4
   0.04029               -12.0          33.53          35.68          38.09          1.197         -1.882          25.96           47.5         -128.1          95.39          113.3
   0.04317              -12.01          33.53          35.69           38.1          1.191         -1.888          25.93          47.48         -128.0          95.37          113.3
   0.04604              -12.01          33.52          35.71          38.11          1.184         -1.895           25.9          47.46         -127.9          95.34          113.3
   0.04892              -12.02          33.52          35.72          38.12          1.176         -1.902          25.86          47.44         -127.8          95.31          113.3
    0.0518              -12.03          33.52          35.74          38.14          1.168          -1.91          25.82          47.41         -127.6          95.28          113.2
   0.05468              -12.03          33.51          35.76          38.15          1.159         -1.919          25.78          47.39         -127.5          95.25          113.2
   0.05756              -12.04          33.51          35.77          38.17           1.15         -1.929          25.73          47.36         -127.3          95.21          113.2
   0.06043              -12.05          33.51           35.8          38.18          1.139         -1.939          25.68          47.33         -127.2          95.17          113.1
   0.06331              -12.06           33.5          35.82           38.2          1.127         -1.951          25.63          47.29         -127.0          95.13          113.1
   0.06619              -12.07           33.5          35.84          38.22          1.114         -1.964          25.56          47.25         -126.8          95.08          113.0
   0.06907              -12.08          33.49          35.87          38.25          1.099         -1.979          25.49          47.21         -126.5          95.02          113.0
   0.07194              -12.09          33.49          35.91          38.27          1.083         -1.995          25.41          47.16         -126.3          94.96          112.9
   0.07482              -12.11          33.48          35.94           38.3          1.064         -2.013          25.32           47.1         -126.0          94.89          112.8
    0.0777              -12.12          33.47          35.98          38.34          1.044         -2.033          25.22          47.04         -125.7          94.82          112.8
   0.08058              -12.14          33.47          36.03          38.38           1.02         -2.056          25.11          46.97         -125.3          94.73          112.7
   0.08345              -12.16          33.46          36.08          38.42         0.9938         -2.082          24.98           46.9         -124.9          94.63          112.6
   0.08633              -12.19          33.45          36.14          38.47         0.9636         -2.112          24.84          46.81         -124.4          94.52          112.5
   0.08921              -12.22          33.43          36.21          38.52         0.9289         -2.146          24.67           46.7         -123.9          94.39          112.3
   0.09209              -12.25          33.42          36.28          38.59         0.8889         -2.186          24.48          46.59         -123.2          94.24          112.2
   0.09497              -12.28           33.4          36.37          38.66         0.8424         -2.232          24.26          46.45         -122.5          94.06          112.0
   0.09784              -12.33          33.38          36.48          38.75         0.7879         -2.285          23.99          46.29         -121.7          93.86          111.8
    0.1007              -12.38          33.36          36.61          38.85         0.7237         -2.348          23.69           46.1         -120.7          93.62          111.6
    0.1036              -12.44          33.34          36.76          38.98         0.6475         -2.424          23.32          45.87         -119.5          93.34          111.3
    0.1065              -12.51           33.3          36.93          39.12         0.5561         -2.514          22.88           45.6         -118.0          92.99          111.0
